<svg
   xmlns:dc="http://purl.org/dc/elements/1.1/"
   xmlns:cc="http://creativecommons.org/ns#"
   xmlns:rdf="http://www.w3.org/1999/02/22-rdf-syntax-ns#"
   xmlns:svg="http://www.w3.org/2000/svg"
   xmlns="http://www.w3.org/2000/svg"
   xmlns:sodipodi="http://sodipodi.sourceforge.net/DTD/sodipodi-0.dtd"
   xmlns:inkscape="http://www.inkscape.org/namespaces/inkscape"
   version="1.1"
   id="Layer_1"
   x="0px"
   y="0px"
   viewBox="0 0 1220 340"
   xml:space="preserve"
   sodipodi:docname="blue_tracklify_new.svg"
   width="1220"
   height="340"
   inkscape:version="0.92.4 (5da689c313, 2019-01-14)"><metadata
   id="metadata68"><rdf:RDF><cc:Work
       rdf:about=""><dc:format>image/svg+xml</dc:format><dc:type
         rdf:resource="http://purl.org/dc/dcmitype/StillImage" /><dc:title></dc:title></cc:Work></rdf:RDF></metadata><defs
   id="defs66" /><sodipodi:namedview
   pagecolor="#ffffff"
   bordercolor="#666666"
   borderopacity="1"
   objecttolerance="10"
   gridtolerance="10"
   guidetolerance="10"
   inkscape:pageopacity="0"
   inkscape:pageshadow="2"
   inkscape:window-width="1920"
   inkscape:window-height="1001"
   id="namedview64"
   showgrid="true"
   inkscape:zoom="0.32"
   inkscape:cx="442.44719"
   inkscape:cy="129.31781"
   inkscape:window-x="-9"
   inkscape:window-y="-9"
   inkscape:window-maximized="1"
   inkscape:current-layer="XMLID_448_"
   inkscape:snap-intersection-paths="true"
   inkscape:object-paths="true"
   inkscape:snap-bbox="true"
   inkscape:bbox-nodes="true"
   inkscape:bbox-paths="true"
   inkscape:snap-bbox-edge-midpoints="true"
   inkscape:snap-bbox-midpoints="true"
   inkscape:snap-object-midpoints="false"
   inkscape:snap-smooth-nodes="false"
   inkscape:snap-midpoints="false"
   inkscape:object-nodes="false"><inkscape:grid
     type="xygrid"
     id="grid4161"
     spacingx="10"
     spacingy="10" /></sodipodi:namedview>
<style
   type="text/css"
   id="style40">
	.st0{fill:#E6E7E8;stroke:#000000;stroke-miterlimit:10;}
	.st1{fill:#27AAE1;}
	.st2{fill:#1C75BC;}
	.st3{stroke:#000000;stroke-miterlimit:10;}
</style>

<g
   id="XMLID_448_"
   transform="translate(-452.9703,-1627.8218)">
	<g
   id="XMLID_446_"
   transform="translate(-125.39176,1158.802)">
		<path
   id="XMLID_46_"
   class="st1"
   d="m 892.4,545.7 c 5.2,7.9 9.7,16.1 13.4,24.6 l -29.4,29.4 c -2.8,-9.1 -6.7,-18 -11.5,-26.5 z"
   inkscape:connector-curvature="0"
   style="fill:#72c7d6;fill-opacity:1" />
		<path
   id="XMLID_45_"
   class="st2"
   d="m 905.8,570.3 c 27.5,62.4 15.7,138 -35.4,189.1 -58.1,58.1 -147.6,65.4 -213.7,22 l 27.5,-27.5 c 50.6,29 116.2,21.9 159.4,-21.3 36,-36 46.9,-87.5 32.8,-133 z"
   inkscape:connector-curvature="0"
   style="fill:#4d96a3;fill-opacity:1" />
		<path
   id="XMLID_44_"
   class="st1"
   d="m 842.6,496.2 -27.5,27.5 c -15,-8.5 -31.4,-13.8 -48,-16 l 31.8,-31.8 c 15.2,4.6 30,11.3 43.7,20.3 z"
   inkscape:connector-curvature="0"
   style="fill:#72c7d6;fill-opacity:1" />
		<path
   id="XMLID_43_"
   class="st2"
   d="M 798.8,476 767,507.8 c -39.3,-5.1 -80.5,7.5 -110.6,37.7 -43,43 -50.2,108.2 -21.7,158.7 2.4,4.2 5,8.3 7.9,12.3 4.1,5.7 8.7,11.1 13.8,16.2 5.1,5.1 10.5,9.7 16.2,13.8 l -27,27 c -5.5,-4.3 -10.8,-9 -15.9,-14.1 -5.1,-5.1 -9.8,-10.4 -14.1,-15.9 -3,-3.8 -5.8,-7.8 -8.4,-11.8 -42.9,-66 -35.4,-155.1 22.5,-212.9 45.8,-45.9 111.1,-60.2 169.1,-42.8 z"
   inkscape:connector-curvature="0"
   style="fill:#4d96a3;fill-opacity:1" />
		<path
   id="XMLID_40_"
   class="st1"
   d="m 843.6,545.4 c 5.1,5.1 9.7,10.5 13.8,16.2 L 750,669 l -70.7,-70.7 30,-30 40.7,40.7 77.4,-77.4 c 5.7,4.1 11.1,8.7 16.2,13.8 z"
   inkscape:connector-curvature="0"
   style="fill:#72c7d6;fill-opacity:1" />
		<path
   id="XMLID_39_"
   class="st2"
   d="m 879.3,509.3 c 5.1,5.1 9.8,10.4 14.1,15.9 l -27,27 c -4.1,-5.7 -8.7,-11.1 -13.8,-16.2 -5.1,-5.1 -10.5,-9.7 -16.2,-13.8 l 27,-27 c 5.5,4.3 10.8,9 15.9,14.1 z"
   inkscape:connector-curvature="0"
   style="fill:#4d96a3;fill-opacity:1" />
		<line
   id="XMLID_38_"
   class="st3"
   x1="767"
   y1="507.79999"
   x2="767"
   y2="507.79999"
   style="stroke:#000000;stroke-miterlimit:10" />
	</g>
	<g
   id="XMLID_20_"
   transform="matrix(1.3735861,0,0,1.3735861,221.81618,498.02758)">
		<path
   id="XMLID_101_"
   class="st2"
   d="m 491.6,930.1 c 2,0 3.7,-0.7 5.1,-2 1.3,-1.3 2,-3 2,-4.9 0,-2 -0.7,-3.7 -2,-5.1 -1.4,-1.3 -3.1,-2 -5.1,-2 H 473.4 V 881 c 0,-1.9 -0.7,-3.6 -2,-4.9 -1.4,-1.3 -3,-2 -4.9,-2 -1.9,0 -3.6,0.7 -5,2 -1.4,1.3 -2.2,3 -2.2,4.9 v 75.8 c 0,4.5 0.7,9.1 2,13.7 1.3,4.6 3.2,8.8 5.5,12.5 2.7,4.4 6.1,7.8 10.1,10.3 4.5,2.8 9.5,4.3 14.6,4.3 2,0 3.7,-0.7 5.1,-2 1.4,-1.4 2,-3.1 2,-5.1 0,-1.9 -0.7,-3.6 -2,-4.9 -1.4,-1.3 -3.1,-2 -5.1,-2 -3.5,0 -6.1,-0.9 -8.2,-2.6 -2.2,-1.9 -3.9,-3.9 -5.1,-6.1 -1.5,-2.5 -2.7,-5.3 -3.6,-8.5 -0.9,-3.1 -1.3,-6.3 -1.3,-9.5 v -26.6 h 18.3 z"
   inkscape:connector-curvature="0"
   style="fill:#4d96a3;fill-opacity:1" />
		<path
   id="XMLID_102_"
   class="st2"
   d="m 556.5,916.2 h -8.4 c -4.4,0 -8.6,0.9 -12.5,2.6 -3.9,1.7 -7.3,4 -10.2,7 -2.9,2.9 -5.3,6.4 -7,10.2 -1.7,3.9 -2.6,8.1 -2.6,12.5 v 42 c 0,1.9 0.7,3.6 2.2,4.9 1.4,1.3 3.1,2 5,2 1.9,0 3.6,-0.7 4.9,-2 1.3,-1.3 2,-3 2,-4.9 v -42 c 0,-2.5 0.5,-4.8 1.5,-7 1,-2.2 2.3,-4.2 3.9,-5.9 1.6,-1.6 3.5,-3 5.8,-4 2.2,-1 4.6,-1.5 7,-1.5 h 8.4 c 1.9,0 3.6,-0.7 5,-2 1.4,-1.3 2.2,-3 2.2,-5 0,-1.9 -0.7,-3.6 -2.2,-5 -1.4,-1.2 -3.1,-1.9 -5,-1.9 z"
   inkscape:connector-curvature="0"
   style="fill:#4d96a3;fill-opacity:1" />
		<path
   id="XMLID_105_"
   class="st2"
   d="m 645.6,928 v 0 c -3.7,-3.7 -8.1,-6.7 -13,-8.8 -4.9,-2.1 -10.2,-3.2 -15.7,-3.2 -5.6,0 -11,1.1 -15.8,3.2 -4.9,2.1 -9.2,5.1 -12.9,8.8 -3.7,3.7 -6.7,8.1 -8.8,13 -2.1,4.9 -3.2,10.2 -3.2,15.7 0,5.6 1.1,11 3.2,15.8 2.1,4.9 5,9.2 8.8,12.9 3.7,3.7 8.1,6.7 12.9,8.8 4.9,2.1 10.2,3.2 15.8,3.2 3.4,0 6.7,-0.4 9.9,-1.3 3.2,-0.8 6.2,-2.1 9.1,-3.6 2.8,-1.5 5.4,-3.2 7.6,-5.2 v 2.9 c 0,1.9 0.7,3.6 2,5 1.3,1.4 3,2.2 5,2.2 2,0 3.8,-0.7 5.1,-2.2 1.3,-1.4 2,-3.1 2,-5 v -33.6 c 0,-5.5 -1.1,-10.8 -3.2,-15.7 -2.2,-4.8 -5.1,-9.2 -8.8,-12.9 z m -2.2,28.7 c 0,3.6 -0.7,7.1 -2.1,10.3 -1.4,3.3 -3.3,6.1 -5.7,8.5 -2.4,2.4 -5.3,4.3 -8.5,5.7 -6.5,2.8 -14.2,2.8 -20.7,0 -3.2,-1.4 -6.1,-3.3 -8.5,-5.7 -2.4,-2.4 -4.3,-5.3 -5.7,-8.5 -1.4,-3.2 -2.1,-6.7 -2.1,-10.3 0,-3.6 0.7,-7.1 2.1,-10.3 1.4,-3.3 3.3,-6.1 5.7,-8.5 2.4,-2.4 5.3,-4.3 8.5,-5.7 3.2,-1.4 6.7,-2.1 10.3,-2.1 3.6,0 7.1,0.7 10.3,2.1 3.3,1.4 6.1,3.3 8.5,5.7 2.4,2.4 4.3,5.3 5.7,8.5 1.5,3.2 2.2,6.7 2.2,10.3 z"
   inkscape:connector-curvature="0"
   style="fill:#4d96a3;fill-opacity:1" />
		<path
   id="XMLID_106_"
   class="st2"
   d="m 700.3,932.5 v 0 c 6.5,-2.9 13.8,-3.2 20.4,-0.7 3,1.1 5.7,2.8 8.1,4.8 1.3,1.3 2.9,2 4.8,2 1.9,0 3.6,-0.8 5.3,-2.4 1.1,-1.3 1.7,-2.9 1.7,-4.9 V 931 c -0.3,-2.1 -1.1,-3.7 -2.4,-4.8 -3.8,-3.2 -8.1,-5.8 -12.7,-7.6 -10.3,-3.7 -20.8,-3.3 -30.9,1.1 -7.4,3.4 -13.3,8.4 -17.5,14.9 -4.2,6.5 -6.3,14 -6.3,22.2 0,8 2.1,15.5 6.3,22.1 4.2,6.6 10.1,11.7 17.6,15 5.5,2.4 11.1,3.6 16.8,3.6 4.7,0 9.4,-0.9 14.1,-2.5 4.5,-1.8 8.8,-4.3 12.6,-7.6 1.4,-1.3 2.2,-2.9 2.4,-4.8 0.2,-2 -0.4,-3.7 -1.8,-5.2 -2.8,-2.8 -6.4,-3 -9.7,-0.7 l -0.2,0.1 c -5.1,4.5 -10.8,6.7 -17.5,6.7 -3.8,0 -7.6,-0.8 -11.1,-2.4 -4.8,-2.1 -8.7,-5.4 -11.5,-9.7 -2.8,-4.3 -4.2,-9.2 -4.2,-14.5 0,-5.3 1.4,-10.2 4.2,-14.5 2.8,-4.5 6.7,-7.8 11.5,-9.9 z"
   inkscape:connector-curvature="0"
   style="fill:#4d96a3;fill-opacity:1" />
		<path
   id="XMLID_107_"
   class="st2"
   d="m 819.6,945.4 c 4.4,-6.6 6.7,-14.1 6.7,-22.2 0,-1.9 -0.7,-3.6 -2,-4.9 -1.4,-1.3 -3,-2 -4.9,-2 -1.9,0 -3.6,0.7 -5,2 -1.4,1.3 -2.2,3 -2.2,4.9 0,3.6 -0.7,7.1 -2.1,10.3 -1.4,3.3 -3.3,6.1 -5.7,8.5 -2.4,2.4 -5.3,4.3 -8.5,5.7 -3.2,1.4 -6.7,2.1 -10.3,2.1 h -14.4 v -68.7 c 0,-2 -0.7,-3.7 -2,-5.1 -1.4,-1.3 -3,-2 -4.9,-2 -2,0 -3.7,0.7 -5.1,2 -1.4,1.4 -2,3.1 -2,5.1 v 109.4 c 0,1.9 0.7,3.6 2,4.9 1.3,1.4 3.1,2 5.1,2 1.9,0 3.6,-0.7 4.9,-2 1.4,-1.4 2,-3 2,-4.9 v -26.6 h 14.4 c 3.6,0 7.1,0.7 10.3,2.1 3.3,1.4 6.1,3.3 8.5,5.7 2.4,2.4 4.3,5.3 5.7,8.5 1.4,3.2 2.1,6.7 2.1,10.3 0,1.9 0.7,3.6 2.2,4.9 1.4,1.3 3.1,2 5,2 1.9,0 3.6,-0.7 4.9,-2 1.4,-1.4 2,-3 2,-4.9 0,-4 -0.5,-7.9 -1.6,-11.6 -1.1,-3.8 -2.8,-7.4 -5,-10.6 -2.8,-4.5 -6.6,-8.4 -11.2,-11.5 4.4,-3 8.2,-6.8 11.1,-11.4 z"
   inkscape:connector-curvature="0"
   style="fill:#4d96a3;fill-opacity:1" />
		<path
   id="XMLID_108_"
   class="st1"
   d="m 850.3,874 c -1.9,0 -3.6,0.7 -4.9,2.2 -1.3,1.4 -2,3.1 -2,5 v 109.4 c 0,1.9 0.7,3.6 2,4.9 1.3,1.4 3,2 4.9,2 1.9,0 3.6,-0.7 4.9,-2 1.4,-1.4 2,-3 2,-4.9 V 881.1 c 0,-1.9 -0.7,-3.6 -2,-5 -1.3,-1.3 -3,-2.1 -4.9,-2.1 z"
   inkscape:connector-curvature="0"
   style="fill:#72c7d6;fill-opacity:1" />
		<path
   id="XMLID_109_"
   class="st1"
   d="m 881.7,897.3 c -1.9,0 -3.6,0.7 -4.9,2.2 -1.3,1.4 -2,3.1 -2,5 v 1.9 c 0,1.9 0.7,3.6 2,4.9 1.3,1.3 3,2 4.9,2 1.9,0 3.6,-0.7 5,-2 1.4,-1.3 2.2,-3 2.2,-5 v -1.9 c 0,-1.9 -0.7,-3.6 -2.1,-5 -1.6,-1.4 -3.2,-2.1 -5.1,-2.1 z"
   inkscape:connector-curvature="0"
   style="fill:#72c7d6;fill-opacity:1" />
		<path
   id="XMLID_110_"
   class="st1"
   d="m 881.7,916 c -1.9,0 -3.6,0.7 -4.9,2 -1.4,1.4 -2,3.1 -2,5.1 v 67.2 c 0,2 0.7,3.7 2,5.1 1.3,1.3 3,2 4.9,2 1.9,0 3.6,-0.7 5,-2 1.4,-1.3 2.2,-3.1 2.2,-5.1 v -67.2 c 0,-2 -0.7,-3.8 -2.2,-5.1 -1.5,-1.3 -3.2,-2 -5,-2 z"
   inkscape:connector-curvature="0"
   style="fill:#72c7d6;fill-opacity:1" />
		<path
   id="XMLID_111_"
   class="st1"
   d="m 921.2,905.2 v 0 c 0.8,-3.1 2,-6 3.5,-8.4 1.3,-2.1 3,-4.1 5.3,-6.1 2.1,-1.8 4.7,-2.6 8.2,-2.6 2,0 3.7,-0.7 5.1,-2 1.4,-1.4 2,-3 2,-4.9 0,-2 -0.7,-3.7 -2,-5.1 -1.4,-1.3 -3.1,-2 -5.1,-2 -5.2,0 -10.1,1.4 -14.6,4.2 -4,2.5 -7.5,5.9 -10.1,10.3 -2.4,3.7 -4.3,7.9 -5.6,12.5 -1.3,4.6 -2,9.2 -2,13.7 v 75.8 c 0,1.9 0.7,3.6 2.2,4.9 1.4,1.3 3.1,2 5,2 1.9,0 3.6,-0.7 4.9,-2 1.4,-1.4 2,-3 2,-4.9 v -60.4 h 18.2 c 2,0 3.7,-0.7 5.1,-2 1.3,-1.3 2,-3 2,-4.9 0,-1.9 -0.7,-3.6 -2,-5 -1.3,-1.4 -3.1,-2.2 -5.1,-2.2 H 920 v -1.3 c -0.1,-3.2 0.4,-6.4 1.2,-9.6 z"
   inkscape:connector-curvature="0"
   style="fill:#72c7d6;fill-opacity:1" />
		<path
   id="XMLID_112_"
   class="st1"
   d="m 1038.6,918.2 v 0 c -1.4,-1.4 -3.1,-2 -5.1,-2 -1.9,0 -3.6,0.7 -4.9,2 -1.4,1.4 -2,3 -2,4.9 v 33.8 c 0,3.6 -0.7,7.1 -2.1,10.3 -1.4,3.3 -3.3,6.1 -5.7,8.5 -2.4,2.4 -5.3,4.3 -8.5,5.7 -6.5,2.8 -14.2,2.8 -20.7,0 -3.2,-1.4 -6.1,-3.3 -8.5,-5.7 -2.4,-2.4 -4.3,-5.3 -5.7,-8.5 -1.4,-3.2 -2.1,-6.7 -2.1,-10.3 v -33.8 c 0,-1.9 -0.7,-3.6 -2,-4.9 -1.4,-1.3 -3,-2 -4.9,-2 -2,0 -3.7,0.7 -5.1,2 -1.4,1.3 -2,3 -2,4.9 v 33.8 c 0,5.6 1.1,11 3.2,15.8 2.1,4.9 5.1,9.2 8.8,12.8 3.7,3.7 8.1,6.6 12.9,8.7 4.9,2.1 10.2,3.2 15.8,3.2 6.7,0 13.1,-1.6 19,-4.7 2.8,-1.5 5.4,-3.2 7.6,-5.2 v 2.9 c 0,4.1 -0.7,7.7 -2,10.8 -1.3,3.1 -3.1,5.8 -5.3,7.9 -2.2,2.2 -4.7,3.9 -7.4,5.2 -2.8,1.3 -5.7,2.2 -8.7,2.6 -0.5,0.1 -1,0.1 -1.5,0.1 h -1.9 c -2.5,0 -5,-0.4 -7.7,-1.1 -2.6,-0.7 -5.1,-1.8 -7.4,-3.4 -2.3,-1.6 -4.5,-3.7 -6.3,-6.2 -1.8,-2.5 -3.3,-5.6 -4.2,-9.1 -0.3,-1.6 -1.1,-2.9 -2.4,-4 -1.3,-1 -2.7,-1.6 -4.3,-1.6 -0.4,0 -0.8,0.1 -1.2,0.2 l -0.5,0.1 c -1.9,0.5 -3.4,1.6 -4.3,3.3 -1.1,1.9 -1.4,3.6 -0.9,5.3 1.4,5.1 3.5,9.7 6.1,13.8 2.5,3.8 5.7,6.9 9.4,9.4 1.7,1.2 3.5,2.3 5.5,3.2 1.9,0.9 3.9,1.7 5.9,2.2 3.6,1.2 7.7,1.8 12.2,1.8 1,0 1.9,0 2.7,-0.1 0.8,-0.1 1.7,-0.1 2.7,-0.3 4.7,-0.6 9.2,-1.9 13.3,-4 4.2,-2 7.9,-4.7 11,-7.8 3.7,-3.6 6.6,-7.9 8.5,-12.8 1.9,-4.8 2.8,-10.1 2.8,-15.9 v -67.3 c 0,-1.5 -0.7,-3.1 -2.1,-4.5 z"
   inkscape:connector-curvature="0"
   style="fill:#72c7d6;fill-opacity:1" />
	</g>
</g>
</svg>