<?xml version="1.0" standalone="no"?>
<!DOCTYPE svg PUBLIC "-//W3C//DTD SVG 20010904//EN"
 "http://www.w3.org/TR/2001/REC-SVG-20010904/DTD/svg10.dtd">
<svg version="1.0" xmlns="http://www.w3.org/2000/svg"
 width="464.000000pt" height="145.000000pt" viewBox="0 0 464.000000 145.000000"
 preserveAspectRatio="xMidYMid meet">

<g transform="translate(0.000000,145.000000) scale(0.100000,-0.100000)"
fill="#000000" stroke="none">
<path d="M0 725 l0 -725 2320 0 2320 0 0 725 0 725 -2320 0 -2320 0 0 -725z
m1939 -289 c26 -27 113 -73 156 -81 27 -5 27 -4 -6 9 -62 24 -113 53 -133 75
l-19 21 101 0 c81 0 102 -3 102 -14 0 -8 -6 -16 -12 -19 -15 -5 18 -47 37 -47
19 0 52 42 38 47 -7 3 -13 11 -13 19 0 11 22 14 111 14 100 0 110 -2 99 -16
-21 -24 -99 -67 -149 -80 -25 -7 -37 -13 -25 -13 38 -2 108 29 162 69 60 46
76 51 41 14 -91 -97 -249 -129 -382 -77 -62 24 -168 102 -141 103 6 0 20 -11
33 -24z m615 8 c14 9 26 12 26 6 0 -6 -7 -13 -15 -16 -8 -4 -13 -10 -10 -14 9
-14 -108 -121 -128 -116 -9 2 -15 1 -12 -4 5 -8 -38 -40 -59 -44 -6 -2 -31 -8
-56 -15 -79 -23 -270 -16 -255 9 3 6 -1 7 -10 4 -8 -4 -21 -1 -29 5 -8 7 -24
14 -37 16 -23 5 -42 19 -121 94 l-47 44 37 18 c20 11 38 16 41 11 36 -47 180
-122 235 -122 20 0 35 -3 35 -7 -6 -38 13 -95 26 -81 14 14 23 77 11 82 -6 2
8 5 32 5 23 1 59 8 79 16 20 8 37 14 37 13 1 -2 7 -14 14 -27 8 -12 9 -21 4
-17 -5 3 -9 -1 -9 -7 0 -21 54 -8 60 14 3 10 1 17 -3 14 -5 -3 -14 3 -20 14
-8 15 -7 23 6 33 8 7 32 29 52 48 35 34 38 35 64 21 23 -13 29 -13 52 3z"/>
<path d="M1965 349 c-4 -5 -10 -7 -14 -5 -4 3 -7 -7 -6 -21 0 -15 5 -28 12
-30 10 -4 43 33 43 48 0 12 -29 19 -35 8z"/>
<path d="M2355 270 c-3 -6 1 -7 9 -4 18 7 21 14 7 14 -6 0 -13 -4 -16 -10z"/>
</g>
</svg>
